<?xml version="1.0" encoding="utf-8"?>
<!-- Generator: Adobe Illustrator 26.3.0, SVG Export Plug-In . SVG Version: 6.00 Build 0)  -->
<svg version="1.1" id="Capa_1" xmlns="http://www.w3.org/2000/svg" xmlns:xlink="http://www.w3.org/1999/xlink" x="0px" y="0px"
	 viewBox="0 0 1920 330" style="enable-background:new 0 0 1920 330;" xml:space="preserve">
<style type="text/css">
	.st0{fill:#EBBB83;}
	.st1{fill:#FF5D5D;}
</style>
<path class="st0" d="M1790.2,151.8c0.7-0.3,1.4-0.6,2.1-1c-1.6-2.1-3.3-4.1-5.2-5.9c-0.6,0.4-1.2,0.9-1.8,1.3
	C1786.8,148.2,1788.4,150.1,1790.2,151.8z M1794.6,149.6c0.8-0.4,1.5-0.9,2.3-1.3c-1.8-2.4-4-4.3-6.6-5.7c-0.4,0.3-0.7,0.5-1.1,0.8
	C1791.1,145.3,1792.9,147.4,1794.6,149.6z M1798.9,146.8c1.4-1,2.7-2.1,3.9-3.2c-2-2-3.8-4.2-5.4-6.4c-1.7,1.2-3.3,2.5-5,3.8
	C1794.9,142.4,1797.1,144.4,1798.9,146.8z M1814.2,205c-8.6-3.6-17.2-7.2-25.7-10.9c0,0.1-0.1,0.1-0.1,0.2c-1.2,1.7-2.1,3.5-2.7,5.5
	c8.5,4.4,17.2,7.8,26.4,10.4C1813,208.6,1813.7,206.9,1814.2,205z M1820.5,267.9c0-1.8,0-3.7-0.1-5.5c-1.1-0.3-2.2-0.6-3.3-0.9
	c-0.3,0.1-0.5,0.2-0.8,0.2c-14.6,0-29.1,0-43.7,0c0.1,2,0.1,4,0.2,6C1788.7,267.9,1804.6,267.9,1820.5,267.9z M1821.7,170.5
	c0.1-0.3,0.3-0.7,0.4-1c-3.6-1.5-7.3-2.4-11.2-2.6c0,0.1-0.1,0.2-0.1,0.3C1814.3,168.6,1818,169.7,1821.7,170.5z M1823,167.2
	c0.3-0.7,0.6-1.4,0.8-2.1c-3.7-1.4-7.6-2.2-11.5-2.7c-0.2,0.7-0.5,1.3-0.7,2C1815.6,164.7,1819.3,165.7,1823,167.2z M1824.8,162.7
	c0.4-1.2,0.9-2.3,1.4-3.5c-3.6-1.5-7.1-3.4-10.5-5.5c-0.9,2.1-1.7,4.2-2.5,6.3C1817.1,160.4,1821,161.3,1824.8,162.7z M1824.4,267.9
	c2.3,0,4.7,0,7,0c-0.5-10.4-0.4-20.9,0.7-31.3c-3,8.2-5.5,16.5-8,24.9c0,0.2-0.1,0.3-0.2,0.4c0,0.1,0,0.1,0,0.2
	c0.1,0.2,0.2,0.4,0.2,0.7C1824.2,264.4,1824.3,266.2,1824.4,267.9z M1826.9,225.7c1.8-4.3,3.7-8.6,5.5-13c-1.8-0.8-3.7-1.5-5.5-2.3
	c-1.4,4.4-3.1,8.7-4.9,13C1823.8,224,1825.4,224.8,1826.9,225.7z M1833.1,156.5c0.8-1.7,1.5-3.4,2.2-5.1
	c-13.4-5.8-24.7-14.4-33.6-25.8c-1.2,1-2.3,2.1-3.3,3.3C1804.7,141.6,1819.5,151.8,1833.1,156.5z M1838.2,216.2
	c-0.4-0.3-0.9-0.6-1.3-0.9c-2.2,5-4.3,10.1-6.5,15.1c-0.4,1-1.1,1.3-1.9,1.3h0c-2.7,9.2-6,18.2-9.8,27c0,0.1,0,0.2,0.1,0.4
	c1.1,0.2,2.1,0.5,3.2,0.8C1826.3,244.9,1831,230,1838.2,216.2z M1839.2,210c0.8-2.5,1.9-4.9,3-7.2c-25.2-7.7-49.9-16.8-74-27.3
	c-0.8,1.3-1.4,2.6-1.8,3.9C1790.6,189.5,1814.8,200,1839.2,210z M1853.5,218.5c0.5-1.7,0.6-3.5-1.1-4.8c-2.2-1.7-5.2-2.6-7.9-3.3
	c0,0-0.1,0-0.1,0c-0.5,1.3-1,2.7-1.3,4.1c0.4,0.8,0.8,1.5,1.1,2.3c0.5-0.1,1-0.1,1.6-0.1C1848.7,216.6,1851.2,217.3,1853.5,218.5z
	 M1856.6,105.8c1.4-3.8,2.8-7.5,4.2-11.3c-8.5-4.3-17.2-7.5-26.4-9.7c-7.3,15.3-13.4,31.1-18.4,47.4c-0.1,0.4-0.3,0.7-0.5,0.9
	c6.4,5.7,13.7,10.3,21.8,13.7c1.9-4.6,3.7-9.3,5.4-14.1c0.1-0.3,0.2-0.5,0.4-0.8c-0.8-0.8-1.4-1.8-1.8-2.8
	c-2.2-6.6,0.7-20.1,8.1-22.7C1851.3,105.7,1854,105.5,1856.6,105.8z M1862.3,87c-7.3-2.7-14.7-5.5-22-8.2c-0.5,0.6-0.9,1.2-1,1.9
	c7.6,2.1,15,4.8,22.1,8.3C1861.8,88.4,1862.1,87.8,1862.3,87z M1860.4,80.9c1.8-4.9,3.7-9.8,5.7-14.7c-4.3-2.8-8.9-4.9-13.8-6.4
	c-1.9,5.2-3.8,10.5-5.8,15.7c0,0,0,0.1-0.1,0.1C1851.1,77.4,1855.8,79.2,1860.4,80.9z M1860.6,130.9c4.9-2.9,6.3-8.7,4.5-13.8
	c-2.5-4.5-7.6-7.3-12.8-6c-4.8,1.2-7.1,9-6.6,13.6C1846.5,131.6,1855.3,134.1,1860.6,130.9z M1867.1,63.9c0.2-0.4,0.3-0.8,0.5-1.2
	c-4.3-3-8.9-5.3-13.8-6.9c-0.2,0.6-0.4,1.2-0.6,1.7C1858.1,58.9,1862.8,61,1867.1,63.9z M1868.6,60.3c0.8-2,1.6-3.9,2.4-5.9
	c-4-3.9-9.2-5.8-14.8-5.6c-0.5,1.5-1.1,3-1.6,4.5C1859.6,55,1864.3,57.3,1868.6,60.3z M1872,51.8c0.1-0.3,0.2-0.6,0.4-0.9
	c-4-3.9-9.3-6.1-14.9-5.8c-0.1,0.3-0.2,0.7-0.4,1C1862.7,46.2,1867.9,48.2,1872,51.8z M1873.5,170.4c5.2-13.7,9.8-27.6,13.8-41.7
	c-5.2-2.9-10.7-5.4-16.3-7.5c0,6.6-3.9,12.7-10.4,15.4c-3.4,1.4-6.9,1.7-10.3,0.1c-1-0.4-2-1-3.1-1.6c-2.6,7.5-5.6,14.9-8.9,22.2
	c8.6,4,17.4,7.5,26.5,10.1C1867.7,168.2,1870.9,168.9,1873.5,170.4z M1876.7,268.2c-3.5-7.2-6.9-14.5-10.4-21.7
	c-3.4-7.1-6.3-16.6-12.6-21.6c-5.8-4.6-13.3-2.6-15.6,5.1c-1.3,4.3-1.2,9.8-1.5,14.2c-0.5,7.9-0.5,15.8-0.1,23.7c3.4,0,6.8,0,10.2,0
	C1856.6,268,1866.7,268.2,1876.7,268.2z M1869.8,241.2c28.8-28.1,31.7-70.4,24.1-108.2c0-0.2,0-0.3-0.1-0.5
	c-1.4-0.9-2.8-1.8-4.3-2.6c-4,14.2-8.7,28.3-14,42.1c0.4,0.4,0.8,0.9,1.1,1.4c3.3,5.1,0.9,13.5,0.1,19c-1.3,8.8-3.4,17.5-6.2,26
	c-0.5,1.5-1.9,2-3.1,1.7c-0.1,0-0.1,0-0.2,0c-3,0-6.1-0.1-9.1-0.1c-0.2,0.6-0.4,1.1-0.6,1.6c2.4,2.3,4.4,5.2,6.1,8
	C1865.9,233.4,1867.9,237.3,1869.8,241.2z M1899.1,280.9c0.3-2.3-0.1-5.1-0.4-7.5c-4.5-1.6-25.8-0.2-26.9-0.2
	c-13.4,0-26.7-0.1-40.1-0.2c-25-0.1-50,0.1-75-0.3c-0.2,2.7-0.8,6.2-0.1,8.5c1.4,4.4,7.7,3.9,11.8,4.1c6.6,0.4,13.1,0.8,19.7,1.1
	c13.1,0.6,26.3,1,39.5,1c13.6,0.1,27.3-0.4,40.9-0.7c6.9-0.1,13.1,1,20,0C1893.6,286.1,1898.2,287.1,1899.1,280.9z M1904.4,272.6
	c0.2,0.9,0,1.6-0.4,2.2c0.7,5,1.6,11.3-2.1,14.2c-4,3.2-14.5,3.4-19.5,3.6c-4.2,0.2-8.1-0.7-12.3-0.8c-4.8-0.1-9.7,0.4-14.5,0.5
	c-9.3,0.2-18.6,0.3-28,0.2c-19.2-0.1-38.4-0.8-57.5-2c-4.4-0.3-14.1,1-17.4-3.3c-2.9-3.8-1.1-11.5-1-15.9c0-0.5,0.1-0.9,0.3-1.2
	c0-1.3,0.8-2.6,2.5-2.6c4.4,0.1,8.8,0.1,13.2,0.2c-0.1-2.7-0.2-5.5-0.2-8.2c0-0.5,0.1-0.9,0.3-1.3c0.3-0.9,1.1-1.6,2.3-1.6
	c14.7,0,29.4,0,44.1,0c0,0,0-0.1,0.1-0.2c3.8-8.7,7-17.6,9.6-26.8c-1.8-1-3.6-1.8-5.6-2.4c-1.3-0.4-1.8-1.6-1.7-2.7
	c-0.1-0.5,0-1,0.2-1.5c2.1-4.8,4-9.7,5.6-14.8c-1.1-0.4-2.2-0.9-3.3-1.4c-0.8,2.7-1.9,5.3-3.5,7.7c-0.9,1.4-2.5,1.4-3.6,0.7
	c-10.6-2.9-20.7-6.9-30.4-12.1c-1.3-0.7-1.5-2-1-3.1c0,0,0-0.1,0-0.1c0.6-2.9,1.7-5.6,3.4-8c-7.1-3-14.1-6-21.2-8.9
	c-1.1-0.5-1.6-1.4-1.7-2.3c-0.1-0.4-0.1-0.7,0-1.2c0.6-2.6,1.7-5,3.1-7.3c0.2-0.4,0.5-0.7,0.9-0.8c0.6-1.2,2.1-2.2,3.7-1.5
	c25.3,11,51.1,20.5,77.5,28.5c1.3,0.4,1.8,1.4,1.8,2.5c0.2,0.6,0.2,1.3-0.2,2.1c-0.4,0.8-0.8,1.6-1.2,2.5c3.7,1,8.2,2.6,10.7,5.6
	c1,1.1,1.4,2.4,1.7,3.7c2.5,0,5.1,0.1,7.6,0.1c3.7-11.2,12.3-36.2,0.9-41.7c-5.5-2.7-12.4-3.7-18.2-5.9c-4.1-1.6-8.1-3.4-12.1-5.2
	c-0.5,0.3-1.1,0.4-1.9,0.2c-1.4-0.4-2.8-0.8-4.2-1.3c-1.7,4.2-3.3,8.5-5,12.7c-0.2,0.4-0.4,0.8-0.7,1c-0.5,0.8-1.5,1.3-2.6,1.1
	c-5.4-1.1-10.5-2.7-15.5-4.8c-1.3-0.5-1.8-1.7-1.7-2.8c0-0.2,0-0.4,0.1-0.7c1.6-5.8,3.6-11.3,6-16.9c-1.6-1.2-3.2-2.4-4.7-3.8
	c-4.8,4.4-10.2,7.7-16.2,10.2c-1.2,0.5-2.2,0-2.6-0.8c0,0-0.1,0-0.1-0.1c-3.1-2.7-5.8-5.9-7.9-9.4c-0.8-1.3-0.3-2.6,0.7-3.2
	c0.1-0.2,0.3-0.3,0.5-0.4c4.6-3.5,9.2-7,13.9-10.4c-0.3-0.5-0.5-0.9-0.8-1.4c-0.2-0.4-0.3-0.8-0.3-1.2c0,0,0,0-0.1-0.1
	c-1-1-0.9-2.5,0-3.6c1.9-2.3,4-4.4,6.3-6.2c0.1,0,0.1-0.1,0.1-0.1c1.1-1,3-1.2,4.1,0.3c2.2,3.1,4.7,6,7.3,8.7
	c5.1-16.5,11.4-32.5,18.9-48c0-0.1,0.1-0.2,0.2-0.3c0.4-1.1,1.5-1.9,3-1.6c0.3,0,0.5,0.1,0.7,0.2c0.4-1.8,1.3-3.4,2.7-4.7
	c0.4-1.2,1.4-2.1,3-1.6c0.6,0.2,1.2,0.4,1.7,0.6c3.9-10.2,7.6-20.5,11.1-30.8c-0.3-1.2,0.2-2.5,1.8-2.8c8.6-1.2,16.9,1.6,22.6,8.2
	c0.8,0.9,0.8,1.9,0.4,2.7c0,0.2-0.1,0.5-0.2,0.8c-4.3,10.1-8.4,20.3-12.2,30.6c0.1,0,0.1,0.1,0.2,0.1c0.6,0.2,1,0.6,1.3,1.1
	c0.4,0.5,0.6,1.1,0.7,1.7c0.3,2.1-0.3,4.3-1.5,6.1c0,0,0.1,0.1,0.1,0.1c0.6,0.5,0.9,1.4,0.5,2.4c-1.6,4.3-3.3,8.6-4.9,13
	c3.6,1.5,6.4,4.3,8.2,7.8c0.1,0.2,0.1,0.3,0.2,0.4c0,0.1,0.1,0.1,0.1,0.2c10.2,3.6,19.8,8.3,28.8,14.3c1.6,1,1.4,2.9,0.4,4
	c7.6,39.6,3.8,83.5-27.1,112.4c3.4,7.4,6.7,14.8,10.2,22.1v0c2.2,0,4.4,0,6.6-0.1c3.4-0.1,9.1-0.9,12.6,1c0.7,0.2,1.3,0.7,1.7,1.3
	C1903.8,271,1904.2,271.8,1904.4,272.6"/>
<path class="st0" d="M1866.7,155.9c3.2-5-2.8-10.6-7.9-7.8c-3.1,1.7-5.1,7.5-1.6,9.9C1860.2,160,1864.5,158.2,1866.7,155.9z
	 M1854.3,145.1c8.9-8.1,24,3.2,16.7,13.5c0,0.1-0.1,0.1-0.2,0.2c-0.1,0.1-0.1,0.2-0.2,0.3c-4,4.6-12.4,6.7-17.2,2.2
	C1848.6,157.1,1849.8,149.2,1854.3,145.1"/>
<path class="st0" d="M1857.9,126.5c2.9-1.5,3.8-4.7,2.9-7.6c-1.2-2.3-4.6-3.8-7.1-2.7c-2.2,1-3.5,4.5-3.5,6.8
	C1850.1,126.9,1854.9,128,1857.9,126.5z M1863.1,118c1.5,4.4-0.5,9.4-4.9,11.1c-3.8,1.4-9.2,0.1-10.4-4.3c-1-3.6,1.2-9.5,4.8-11.1
	c3.7-1.5,8.7,0.4,10.4,3.9c0,0,0,0.1,0,0.2C1863.1,117.9,1863.1,117.9,1863.1,118"/>
<path class="st0" d="M1847.7,238.2c3-0.6,6-1.9,6-5.5c0-2.9-3.1-5-5.6-5.6c-3.6-0.8-7,1.1-6.4,5.2c0.1,1.2,0.6,2.4,1,3.5
	C1843.6,238.2,1845.3,238.6,1847.7,238.2z M1856.1,231.5c0.9,5.2-3.2,8.3-7.7,9.1c-2.3,0.3-4.7,0.4-6.5-1.3
	c-1.7-1.7-2.5-4.6-2.8-6.9c-0.6-4.4,2.5-7.9,7-8.1C1850.3,224.2,1855.3,227.1,1856.1,231.5"/>
<g>
	<g transform="translate(38.090991, 230.822684)">
		<g>
			<path class="st0" d="M77-54.2c-11.5,0-21.6-2.7-30.5-8C37.7-67.6,30.8-74.9,26-84.1c-4.9-9.2-7.3-19.5-7.3-30.7
				c0-10.8,2.3-21.1,6.9-30.9c4.6-9.8,11.4-17.8,20.3-23.9s19.7-9.2,32.3-9.2c4.5,0,9.4,0.7,14.7,2.2c5.3,1.5,10.1,3.5,14.5,6.1h0.2
				l-0.7-7.1h13.1v39.6H109c-3.1-18.8-12.6-28.4-28.6-28.6c-7.6,0-14,2.2-19.3,6.7c-5.3,4.5-9.2,10.4-11.8,17.8
				c-2.6,7.4-3.9,15.3-3.9,23.8c0,9.8,1.4,18.4,4.2,26c2.8,7.6,6.9,13.5,12.2,17.8S73.6-68,81.1-68c7.2,0,14.4-1.9,21.3-5.6
				c7-3.8,12.9-8.9,17.6-15.3l8.2,7.5c-7.5,10.3-15.7,17.4-24.7,21.4S85.7-54.2,77-54.2z"/>
		</g>
	</g>
</g>
<g>
	<g transform="translate(125.867374, 230.822684)">
		<g>
			<path class="st0" d="M107.1-54.2c-13.6,0-24.8-3-33.7-9C64.6-69.3,58.1-77,54-86.4c-4.1-9.4-6.1-19.5-6.1-30.1
				c0-10.1,2.3-19.9,6.8-29.4c4.5-9.5,11.3-17.4,20.3-23.6c9-6.2,19.9-9.3,32.6-9.3c13,0,24,3.1,32.9,9.3c8.9,6.2,15.5,14,19.8,23.6
				c4.3,9.5,6.5,19.3,6.5,29.4c0,9.9-2.3,19.6-6.8,29.2c-4.5,9.6-11.3,17.5-20.3,23.7C130.7-57.4,119.8-54.2,107.1-54.2z
				 M108.8-66.7c7.4,0,13.4-2.3,18-7c4.7-4.7,8-10.5,10-17.7c2-7.2,3.1-14.6,3.1-22.3c0-16.1-2.8-28.9-8.5-38.5
				c-5.7-9.5-14.1-14.3-25.2-14.3c-7.5,0-13.6,2.4-18.4,7.1c-4.8,4.8-8.2,10.8-10.2,18c-2,7.2-3.1,14.8-3.1,22.6
				c0,7.9,1.1,15.9,3.4,23.8c2.3,7.9,6,14.6,11.1,20C94.3-69.4,100.9-66.7,108.8-66.7z"/>
		</g>
	</g>
</g>
<g>
	<g transform="translate(223.977886, 230.822684)">
		<g>
			<path class="st0" d="M139.8-54.2c-13.6,0-24.8-3-33.7-9c-8.8-6-15.3-13.7-19.4-23.1c-4.1-9.4-6.1-19.5-6.1-30.1
				c0-10.1,2.3-19.9,6.8-29.4c4.5-9.5,11.3-17.4,20.3-23.6c9-6.2,19.9-9.3,32.6-9.3c13,0,24,3.1,32.9,9.3c8.9,6.2,15.5,14,19.8,23.6
				c4.3,9.5,6.5,19.3,6.5,29.4c0,9.9-2.3,19.6-6.8,29.2c-4.5,9.6-11.3,17.5-20.3,23.7C163.4-57.4,152.5-54.2,139.8-54.2z
				 M141.5-66.7c7.4,0,13.4-2.3,18-7c4.7-4.7,8-10.5,10-17.7c2-7.2,3.1-14.6,3.1-22.3c0-16.1-2.8-28.9-8.5-38.5
				c-5.7-9.5-14.1-14.3-25.2-14.3c-7.5,0-13.6,2.4-18.4,7.1c-4.8,4.8-8.2,10.8-10.2,18c-2,7.2-3.1,14.8-3.1,22.6
				c0,7.9,1.1,15.9,3.4,23.8c2.3,7.9,6,14.6,11.1,20C127-69.4,133.6-66.7,141.5-66.7z"/>
		</g>
	</g>
</g>
<g>
	<g transform="translate(322.088398, 230.822684)">
		<g>
			<path class="st0" d="M115.9-68.2c3.1-0.1,5.4-0.5,7-1.1c1.6-0.6,2.8-2,3.7-4c0.9-2,1.4-5.3,1.4-9.7v-65.2
				c0-6.3,0.2-11.4,0.7-15.3l-12.8,0.5v-13.1l48.3-0.4c15.5-0.1,27.5,2.6,36,8.2c8.5,5.6,12.7,14.6,12.7,27c0,7.8-2.5,14.8-7.6,20.8
				c-5,6.1-12.5,10.5-22.4,13.4v0.2c2,0.8,4.1,2.2,6.3,4.2c2.2,2,4,4.2,5.4,6.5l8,11.9c3.9,6,7.1,10.2,9.6,12.4
				c2.6,2.3,5.7,3.5,9.5,3.6V-57h-28.1c-1.9-1.4-3.9-3.3-5.8-5.9c-1.9-2.6-4.1-5.9-6.6-10.1l-12.6-20.4c-2.8-4.5-5.2-7.8-7.1-9.9
				h-8.9V-85c0,6.5-0.2,11.6-0.7,15.5c3.6-0.3,8.5-0.5,14.5-0.5V-57h-50.5V-68.2z M160.8-115.5c9.3,0,16-2.1,20.2-6.2
				c4.1-4.1,6.2-10.6,6.2-19.5c0-9.4-2.4-15.7-7.2-18.7c-4.8-3.1-10.1-4.6-15.9-4.6c-4,0-6.9,0.9-8.7,2.6c-1.8,1.7-2.7,5.3-2.7,10.9
				v34.9C156-115.7,158.7-115.5,160.8-115.5z"/>
		</g>
	</g>
</g>
<g>
	<g transform="translate(409.609624, 230.822684)">
		<g>
			<path class="st0" d="M145-68.2c3.1-0.1,5.4-0.5,7-1.1c1.6-0.6,2.8-2,3.7-4c0.9-2,1.4-5.3,1.4-9.7v-65.2c0-6.3,0.2-11.4,0.7-15.3
				L145-163v-13.1l49.5-0.2c14.2,0,26.2,2.8,36,8.4c9.8,5.6,17.1,12.9,22,21.9c4.8,9,7.2,18.4,7.2,28.2c0,10-2.3,19.6-6.9,28.8
				C248.2-79.6,241-72,231-66c-9.9,6-22.4,9-37.3,9H145V-68.2z M197.3-69.4c7.9,0,14.6-2.1,19.9-6.3c5.3-4.2,9.3-9.7,11.8-16.4
				c2.6-6.8,3.8-14.1,3.8-22c0-17.2-3.5-30-10.6-38.3c-7-8.3-16.9-12.4-29.8-12.4c-3.9,0-6.6,1-8.3,2.9c-1.6,1.9-2.5,5.8-2.5,11.6
				v65.5c0,6.3-0.2,11.5-0.7,15.3c0.6-0.1,1.7-0.2,3.2-0.2l7.3,0.2C193.1-69.4,195-69.4,197.3-69.4z"/>
		</g>
	</g>
</g>
<g>
	<g transform="translate(506.444302, 230.822684)">
		<g>
			<path class="st0" d="M177.3-68.2c3.1-0.1,5.4-0.5,7-1.1c1.6-0.6,2.8-2,3.7-4c0.9-2,1.4-5.3,1.4-9.7v-65.2
				c0-6.3,0.2-11.4,0.7-15.3l-12.8,0.5v-13.1h48.8v11.2c-3.1,0.1-5.4,0.5-7,1.1c-1.6,0.6-2.8,2-3.8,4c-0.9,2-1.4,5.3-1.4,9.7v65.2
				c0,6.3-0.2,11.5-0.7,15.3c3.6-0.3,7.9-0.5,12.8-0.5V-57h-48.8V-68.2z"/>
		</g>
	</g>
</g>
<g>
	<g transform="translate(555.818505, 230.822684)">
		<g>
			<path class="st0" d="M229.8-124.9c-2.8-3.6-6-7.9-9.4-12.8h-0.2l0.4,52.8c0,6.3-0.2,11.5-0.7,15.3c3.6-0.3,7.9-0.5,12.8-0.5V-57
				h-38.8v-11.2c3.1-0.1,5.4-0.5,7-1.1c1.6-0.6,2.8-2,3.8-4c0.9-2,1.4-5.3,1.4-9.7l-0.3-65.2c0-7.6,0.2-12.7,0.7-15.3l-12.9,0.5
				v-13.1h26.7l52.1,65.7c4.8,6.2,8.7,11.6,11.9,16.2h0.2v-53.9c0-7.4,0.2-12.5,0.5-15.3L272-163v-13.1h38.8v11.2
				c-3.1,0.1-5.4,0.5-7,1.1c-1.6,0.6-2.8,2-3.7,4c-0.9,2-1.4,5.3-1.4,9.7v94.8h-14.5L229.8-124.9z"/>
		</g>
	</g>
</g>
<g>
	<g transform="translate(654.439331, 230.822684)">
		<g>
			<path class="st0" d="M218.8-68.7c2.9,0,5.4-0.8,7.4-2.5c2-1.7,3.5-3.8,4.7-6.2c1.1-2.4,2.6-6,4.3-10.6l33.2-91h11.9l36.2,92.7
				c0.9,2.3,1.9,5.1,2.9,8.4c1,3.3,1.7,6.1,1.9,8.4c3.7-0.3,7-0.5,9.9-0.5V-57h-45.8v-11.2c5.4,0,8.2-2.3,8.2-6.8
				c0-2.3-0.6-5-1.9-8.2l-3.4-9.4l-36.9,0.7l-2.7,8c-0.3,0.9-1.1,2.9-2.3,6.1c-1.2,3.2-2.2,5.7-3.1,7.6c3.6-0.3,7.7-0.5,12.1-0.5
				V-57h-36.4V-68.7z M284-104.6l-7.8-21.3c-3.3-9.3-5.5-17.1-6.5-23.3h-0.2c-1.8,8.2-3.9,15.7-6.3,22.5l-7.6,22.1H284z"/>
		</g>
	</g>
</g>
<g>
	<g transform="translate(739.664072, 230.822684)">
		<g>
			<path class="st0" d="M310.9-54.2c-11.5,0-21.6-2.7-30.5-8c-8.8-5.3-15.7-12.6-20.6-21.9c-4.9-9.2-7.3-19.5-7.3-30.7
				c0-10.8,2.3-21.1,6.9-30.9c4.6-9.8,11.4-17.8,20.3-23.9c9-6.1,19.7-9.2,32.3-9.2c4.5,0,9.4,0.7,14.7,2.2
				c5.3,1.5,10.1,3.5,14.5,6.1h0.2l-0.7-7.1h13.1v39.6h-11.1c-3.1-18.8-12.6-28.4-28.6-28.6c-7.6,0-14,2.2-19.3,6.7
				c-5.3,4.5-9.2,10.4-11.8,17.8c-2.6,7.4-3.9,15.3-3.9,23.8c0,9.8,1.4,18.4,4.2,26c2.8,7.6,6.9,13.5,12.2,17.8
				c5.3,4.2,11.7,6.4,19.2,6.4c7.2,0,14.4-1.9,21.3-5.6c7-3.8,12.9-8.9,17.6-15.3l8.2,7.5c-7.5,10.3-15.7,17.4-24.7,21.4
				C328.5-56.2,319.6-54.2,310.9-54.2z"/>
		</g>
	</g>
</g>
<g>
	<g transform="translate(827.440478, 230.822684)">
		<g>
			<path class="st0" d="M284.3-68.2c3.1-0.1,5.4-0.5,7-1.1s2.8-2,3.7-4c0.9-2,1.4-5.3,1.4-9.7v-65.2c0-6.3,0.2-11.4,0.7-15.3
				l-12.8,0.5v-13.1h48.8v11.2c-3.1,0.1-5.4,0.5-7,1.1s-2.8,2-3.8,4c-0.9,2-1.4,5.3-1.4,9.7v65.2c0,6.3-0.2,11.5-0.7,15.3
				c3.6-0.3,7.9-0.5,12.8-0.5V-57h-48.8V-68.2z"/>
		</g>
	</g>
</g>
<g>
	<g transform="translate(876.81468, 230.822684)">
		<g>
			<path class="st0" d="M357.4-54.2c-13.6,0-24.8-3-33.7-9c-8.8-6-15.3-13.7-19.4-23.1c-4.1-9.4-6.1-19.5-6.1-30.1
				c0-10.1,2.3-19.9,6.8-29.4c4.5-9.5,11.3-17.4,20.3-23.6c9-6.2,19.9-9.3,32.6-9.3c13,0,24,3.1,32.9,9.3c8.9,6.2,15.5,14,19.8,23.6
				c4.3,9.5,6.5,19.3,6.5,29.4c0,9.9-2.3,19.6-6.8,29.2c-4.5,9.6-11.3,17.5-20.3,23.7C381-57.4,370.1-54.2,357.4-54.2z M359.1-66.7
				c7.4,0,13.4-2.3,18-7c4.7-4.7,8-10.5,10-17.7c2-7.2,3.1-14.6,3.1-22.3c0-16.1-2.8-28.9-8.5-38.5c-5.7-9.5-14.1-14.3-25.2-14.3
				c-7.5,0-13.6,2.4-18.4,7.1c-4.8,4.8-8.2,10.8-10.2,18c-2,7.2-3.1,14.8-3.1,22.6c0,7.9,1.1,15.9,3.4,23.8c2.3,7.9,6,14.6,11.1,20
				C344.6-69.4,351.2-66.7,359.1-66.7z M344.7-192.9l18.9-20.1c1.2-1.2,2.7-2.2,4.2-3c1.6-0.7,3.2-1.1,4.8-1.1
				c2.9,0,5.4,1.2,7.5,3.7c1.1,1.6,1.7,3.3,1.7,5.1c0,2-0.7,4.1-2,6c-1.3,2-2.9,3.6-4.9,4.9l-24.1,12.8L344.7-192.9z"/>
		</g>
	</g>
</g>
<g>
	<g transform="translate(974.925146, 230.822684)">
		<g>
			<path class="st0" d="M369.5-124.9c-2.8-3.6-6-7.9-9.4-12.8H360l0.4,52.8c0,6.3-0.2,11.5-0.7,15.3c3.6-0.3,7.9-0.5,12.8-0.5V-57
				h-38.8v-11.2c3.1-0.1,5.4-0.5,7-1.1c1.6-0.6,2.8-2,3.8-4c0.9-2,1.4-5.3,1.4-9.7l-0.3-65.2c0-7.6,0.2-12.7,0.7-15.3l-12.9,0.5
				v-13.1h26.7l52.1,65.7c4.8,6.2,8.7,11.6,11.9,16.2h0.2v-53.9c0-7.4,0.2-12.5,0.5-15.3l-12.8,0.5v-13.1h38.8v11.2
				c-3.1,0.1-5.4,0.5-7,1.1c-1.6,0.6-2.8,2-3.7,4c-0.9,2-1.4,5.3-1.4,9.7v94.8H424L369.5-124.9z"/>
		</g>
	</g>
</g>
<g>
	<g transform="translate(1073.547941, 230.822684)">
	</g>
</g>
<g>
	<g transform="translate(1107.110438, 230.822684)">
		<g>
			<path class="st1" d="M377.5-68.2c3.1-0.1,5.4-0.5,7-1.1c1.6-0.6,2.8-2,3.7-4c0.9-2,1.4-5.3,1.4-9.7v-65.2
				c0-6.3,0.2-11.4,0.7-15.3l-12.8,0.5v-13.1l49.5-0.2c14.2,0,26.2,2.8,36,8.4c9.8,5.6,17.1,12.9,22,21.9c4.8,9,7.2,18.4,7.2,28.2
				c0,10-2.3,19.6-6.9,28.8c-4.6,9.2-11.8,16.9-21.8,22.9c-9.9,6-22.4,9-37.3,9h-48.7V-68.2z M429.8-69.4c7.9,0,14.6-2.1,19.9-6.3
				c5.3-4.2,9.3-9.7,11.8-16.4c2.6-6.8,3.8-14.1,3.8-22c0-17.2-3.5-30-10.6-38.3c-7-8.3-16.9-12.4-29.8-12.4c-3.9,0-6.6,1-8.3,2.9
				c-1.6,1.9-2.5,5.8-2.5,11.6v65.5c0,6.3-0.2,11.5-0.7,15.3c0.6-0.1,1.7-0.2,3.2-0.2l7.3,0.2C425.6-69.4,427.5-69.4,429.8-69.4z"/>
		</g>
	</g>
</g>
<g>
	<g transform="translate(1203.945128, 230.822684)">
		<g>
			<path class="st1" d="M409.8-68.2c3.1-0.1,5.4-0.5,7-1.1c1.6-0.6,2.8-2,3.7-4c0.9-2,1.4-5.3,1.4-9.7v-65.2
				c0-6.3,0.2-11.4,0.7-15.3l-12.8,0.5v-13.1h85.1l1,33h-11.2c0-8.4-2-14.2-6-17.4c-4-3.2-8.9-4.7-14.5-4.5l-6.1,0.2
				c-2.7,0.1-4.9,0.5-6.5,1.1c-1.6,0.6-2.8,2-3.7,4.2c-0.8,2.2-1.3,5.3-1.3,9.5v25.5h19.9c-0.1-1.9-0.4-6.9-0.7-14.8h13.1V-98h-11.2
				c0-4.5-0.7-7.9-2.1-10c-1.4-2.2-3.3-3.5-5.5-4.2c-2.3-0.6-5.3-0.9-9-0.8l-4.4,0.2v27.9c0,6.1-0.2,11.1-0.7,15h22.8
				c5.8,0,10.7-1.9,14.7-5.9c4-3.9,6-10.1,6-18.6h11.1L499.6-57h-89.8V-68.2z"/>
		</g>
	</g>
</g>
<g>
	<g transform="translate(24.825367, 322.119453)">
		<g>
			<path class="st1" d="M28.4-33.9c2-0.1,3.5-0.3,4.6-0.7c1-0.4,1.9-1.3,2.5-2.6c0.6-1.3,0.9-3.5,0.9-6.4v-53.5h-5.1
				c-4.4,0.1-7.8,1.6-10.2,4.5c-2.4,2.9-3.6,7.3-3.6,13.2h-7.4l0.6-25.2h67.6l0.7,25.2h-7.4c0-5.9-1.2-10.3-3.6-13.3
				c-2.4-3-5.8-4.5-10.1-4.4h-5.4v52.4c0,5-0.2,8.3-0.5,10.1c2.5-0.2,5.4-0.4,8.9-0.4v8.6H28.4V-33.9z"/>
		</g>
	</g>
</g>
<g>
	<g transform="translate(79.242534, 322.119453)">
		<g>
			<path class="st1" d="M32-33.9c2-0.1,3.5-0.3,4.6-0.7c1-0.4,1.9-1.3,2.4-2.6c0.6-1.3,0.9-3.5,0.9-6.4v-42.8c0-4.2,0.2-7.5,0.5-10
				L32-96.1v-8.6l31.7-0.2c10.2-0.1,18.1,1.7,23.6,5.4c5.5,3.6,8.3,9.6,8.3,17.8c0,5.1-1.7,9.7-5,13.7c-3.3,4-8.2,6.9-14.7,8.8v0.1
				c1.3,0.5,2.7,1.4,4.1,2.8c1.4,1.3,2.6,2.7,3.6,4.3l5.2,7.8c2.5,3.9,4.6,6.7,6.3,8.1c1.7,1.5,3.8,2.3,6.2,2.3v7.4H83
				c-1.3-0.9-2.6-2.2-3.8-3.8c-1.3-1.7-2.7-3.9-4.4-6.7l-8.2-13.4c-1.9-3-3.4-5.1-4.7-6.5h-5.8V-45c0,4.2-0.1,7.6-0.4,10.2
				c2.4-0.2,5.5-0.4,9.5-0.4v8.6H32V-33.9z M61.5-64.9c6.1,0,10.5-1.4,13.2-4.1c2.7-2.7,4.1-7,4.1-12.8c0-6.2-1.6-10.3-4.8-12.3
				c-3.2-2-6.6-3-10.4-3c-2.6,0-4.5,0.6-5.7,1.7c-1.2,1.1-1.8,3.5-1.8,7.1v22.9C58.3-65.1,60.1-64.9,61.5-64.9z"/>
		</g>
	</g>
</g>
<g>
	<g transform="translate(136.673571, 322.119453)">
		<g>
			<path class="st1" d="M46-34.3c1.9,0,3.6-0.6,4.9-1.7c1.3-1.1,2.3-2.5,3.1-4.1c0.8-1.6,1.7-3.9,2.8-7l21.8-59.7h7.8l23.8,60.8
				c0.6,1.5,1.2,3.3,1.9,5.5c0.7,2.2,1.1,4,1.2,5.5c2.5-0.2,4.6-0.4,6.5-0.4v8.6h-30v-7.4c3.6,0,5.4-1.5,5.4-4.5
				c0-1.5-0.4-3.3-1.2-5.4l-2.2-6.1l-24.2,0.5l-1.8,5.2c-0.2,0.6-0.7,1.9-1.5,4c-0.8,2.1-1.5,3.8-2,5c2.4-0.2,5-0.3,7.9-0.3v8.9H46
				V-34.3z M88.8-57.8l-5.1-14C81.5-77.8,80-82.9,79.4-87h-0.1c-1.2,5.4-2.6,10.3-4.1,14.7l-5,14.5H88.8z"/>
		</g>
	</g>
</g>
<g>
	<g transform="translate(192.597673, 322.119453)">
		<g>
			<path class="st1" d="M69.8-33.9c2-0.1,3.5-0.3,4.6-0.7c1-0.4,1.9-1.3,2.4-2.6c0.6-1.3,0.9-3.5,0.9-6.4v-42.8
				c0-4.2,0.2-7.5,0.5-10l-8.4,0.3v-8.6l30.9-0.2c8.9-0.1,15.9,1.5,21,4.8c5.1,3.3,7.6,8.1,7.6,14.4c0,3.7-1.4,7-4.1,10.1
				c-2.7,3.1-6.7,5.3-12,6.7v0.1c7.2,1.1,12.5,3.5,16.2,7.1c3.7,3.6,5.5,7.9,5.5,12.8c0,7.1-2.5,12.5-7.5,16.4
				c-5,3.9-11.6,5.8-19.6,5.8h-38V-33.9z M99.7-70.5c4.4-0.1,7.6-1.5,9.5-4.2c2-2.7,3-6.3,3-10.8c0-4-1.1-6.9-3.4-8.8
				c-2.2-1.9-5-2.8-8.1-2.8c-1.6,0-2.8,0.2-3.7,0.6c-0.9,0.4-1.7,1.2-2.2,2.6c-0.6,1.4-0.8,3.4-0.8,6.2v17.3L99.7-70.5z M93.4-34.5
				c4.9,0,8.5,0,10.8-0.1c4.4-0.2,7.7-1.6,9.8-4.2c2.2-2.6,3.2-6,3.2-10.3c0-4.8-1.4-8.2-4.1-10.3s-6.2-3.2-10.3-3.2
				c-4.1,0-7.1,0-9,0.1v18.2C93.9-40.3,93.7-37,93.4-34.5z"/>
		</g>
	</g>
</g>
<g>
	<g transform="translate(247.935746, 322.119453)">
		<g>
			<path class="st1" d="M83.1-34.3c1.9,0,3.6-0.6,4.9-1.7c1.3-1.1,2.3-2.5,3.1-4.1c0.8-1.6,1.7-3.9,2.8-7l21.8-59.7h7.8l23.8,60.8
				c0.6,1.5,1.2,3.3,1.9,5.5c0.7,2.2,1.1,4,1.2,5.5c2.5-0.2,4.6-0.4,6.5-0.4v8.6h-30v-7.4c3.6,0,5.4-1.5,5.4-4.5
				c0-1.5-0.4-3.3-1.2-5.4l-2.2-6.1l-24.2,0.5l-1.8,5.2c-0.2,0.6-0.7,1.9-1.5,4c-0.8,2.1-1.5,3.8-2,5c2.4-0.2,5-0.3,7.9-0.3v8.9
				H83.1V-34.3z M125.9-57.8l-5.1-14c-2.2-6.1-3.6-11.2-4.2-15.3h-0.1c-1.2,5.4-2.6,10.3-4.1,14.7l-5,14.5H125.9z"/>
		</g>
	</g>
</g>
<g>
	<g transform="translate(303.85986, 322.119453)">
		<g>
			<path class="st1" d="M117.4-24.8c-4.5,0-8.3-1.1-11.4-3.4c-3.1-2.3-4.6-5.1-4.6-8.6c0-2.6,0.7-4.8,2.2-6.6
				c1.5-1.8,3.5-2.7,6.1-2.7c2.4,0,4.2,0.7,5.4,2.1c1.2,1.4,1.9,3.1,2,5.1c0.1,1.2-0.3,2.6-1,4.1c0.3,0.7,0.8,1.1,1.5,1.4
				c0.7,0.3,1.4,0.4,2,0.4c3.3,0,4.9-2.9,4.9-8.8v-44.8c0-5,0.2-8.3,0.5-10l-8.4,0.3v-8.6h32v7.4c-2,0.1-3.5,0.3-4.6,0.7
				c-1,0.4-1.9,1.3-2.5,2.6c-0.6,1.3-0.9,3.5-0.9,6.4v32.7c0,10.5-2,18.2-5.9,23C130.9-27.2,125.1-24.8,117.4-24.8z"/>
		</g>
	</g>
</g>
<g>
	<g transform="translate(341.616982, 322.119453)">
		<g>
			<path class="st1" d="M156.6-24.8c-8.9,0-16.3-2-22.1-5.9c-5.8-3.9-10.1-9-12.7-15.2c-2.7-6.2-4-12.8-4-19.7
				c0-6.6,1.5-13.1,4.5-19.3c3-6.2,7.4-11.4,13.3-15.5c5.9-4.1,13-6.1,21.4-6.1c8.6,0,15.8,2,21.6,6.1c5.8,4.1,10.2,9.2,13,15.5
				c2.8,6.2,4.2,12.7,4.2,19.3c0,6.5-1.5,12.9-4.5,19.1c-3,6.3-7.4,11.5-13.3,15.6C172.1-26.8,165-24.8,156.6-24.8z M157.7-32.9
				c4.8,0,8.8-1.5,11.8-4.6c3.1-3.1,5.2-6.9,6.6-11.6c1.3-4.7,2-9.6,2-14.6c0-10.6-1.9-19-5.6-25.2c-3.7-6.2-9.2-9.4-16.5-9.4
				c-4.9,0-8.9,1.6-12,4.7s-5.4,7.1-6.7,11.8c-1.3,4.8-2,9.7-2,14.8c0,5.2,0.7,10.4,2.2,15.6c1.5,5.2,3.9,9.6,7.3,13.1
				C148.2-34.7,152.5-32.9,157.7-32.9z"/>
		</g>
	</g>
</g>
<g>
	<g transform="translate(405.996677, 322.119453)">
	</g>
</g>
<g>
	<g transform="translate(428.014696, 322.119453)">
		<g>
			<path class="st1" d="M148.3-33.9c2-0.1,3.5-0.3,4.6-0.7c1-0.4,1.9-1.3,2.4-2.6c0.6-1.3,0.9-3.5,0.9-6.4v-42.8
				c0-4.2,0.2-7.5,0.5-10l-8.4,0.3v-8.6h55.8l0.7,21.7h-7.4c0-5.5-1.3-9.3-4-11.4c-2.6-2.1-5.8-3.1-9.5-3l-4,0.1
				c-1.8,0.1-3.2,0.3-4.2,0.7c-1,0.4-1.8,1.3-2.4,2.7c-0.6,1.4-0.8,3.5-0.8,6.2v16.8h13.1c-0.1-1.3-0.2-4.5-0.4-9.7h8.6v27.1h-7.4
				c0-3-0.5-5.2-1.4-6.6c-0.9-1.4-2.1-2.3-3.6-2.7c-1.5-0.4-3.5-0.6-5.9-0.5l-2.9,0.1v18.3c0,4-0.1,7.3-0.4,9.8h15
				c3.8,0,7-1.3,9.6-3.9c2.6-2.6,4-6.6,4-12.2h7.3l-0.6,24.6h-58.9V-33.9z"/>
		</g>
	</g>
</g>
<g>
	<g transform="translate(480.255186, 322.119453)">
		<g>
			<path class="st1" d="M194.4-24.8c-3.1,0-6.3-0.5-9.8-1.5s-6.6-2.3-9.5-4h-0.1l0.3,4.7h-8.6v-26.1h7.4c1,6.1,3.3,10.8,7,14
				c3.7,3.2,8.3,4.9,13.6,4.9c3.9,0,7.1-1,9.6-3.1c2.5-2.1,3.8-4.5,3.8-7.4c0-2.4-0.8-4.4-2.5-6.1c-1.7-1.7-3.5-3.1-5.6-4
				c-2-1-5.3-2.4-9.8-4.1c-8.2-3.3-14.5-7-18.8-11.1c-4.3-4.2-6.5-9.6-6.5-16.4c0-3.4,0.9-6.7,2.6-10c1.7-3.2,4.5-5.9,8.4-8.1
				c3.9-2.2,8.9-3.2,15.1-3.2c3.2,0,6.6,0.5,10,1.4c3.5,0.9,6.4,2.2,8.7,4h0.1l-0.5-4.6h8.7v26h-7.4c-1-6.1-3.1-10.8-6.4-14
				c-3.3-3.2-7.5-4.8-12.7-4.8c-3.3,0-6.2,0.9-8.6,2.8c-2.4,1.8-3.6,4.1-3.6,6.9c0,3.3,1.4,6,4.1,8.3c2.8,2.2,7.4,4.7,14,7.4
				c7.5,3,13.6,6.4,18.4,10.3c4.7,3.9,7.1,9.1,7.1,15.6c0,4.4-1.2,8.3-3.6,11.7c-2.4,3.4-5.7,6.1-10,8C205-25.7,200-24.8,194.4-24.8
				z"/>
		</g>
	</g>
</g>
<g>
	<g transform="translate(530.318964, 322.119453)">
		<g>
			<path class="st1" d="M182.4-33.9c2-0.1,3.5-0.3,4.6-0.7c1-0.4,1.9-1.3,2.4-2.6c0.6-1.3,0.9-3.5,0.9-6.4v-42.8
				c0-4.2,0.2-7.5,0.5-10l-8.4,0.3v-8.6l31.7-0.2c10-0.1,17.9,1.9,23.6,6c5.7,4.1,8.5,10.2,8.5,18.5c0,4.2-1.2,8.3-3.6,12.2
				c-2.4,3.9-5.9,7-10.7,9.5c-4.8,2.4-10.6,3.8-17.4,4l-4.4,0.1l-3.7-0.1v9.8c0,4.2-0.1,7.6-0.4,10.2c2.4-0.2,5.5-0.4,9.5-0.4v8.6
				h-33.1V-33.9z M211.5-62.8c6,0,10.4-1.5,13.2-4.5c2.8-3,4.2-7.4,4.2-13.2c0-11-5-16.5-15-16.5c-2.6,0-4.5,0.6-5.7,1.7
				c-1.2,1.1-1.8,3.5-1.8,7.1v25.1C208-62.9,209.7-62.8,211.5-62.8z"/>
		</g>
	</g>
</g>
<g>
	<g transform="translate(583.815237, 322.119453)">
		<g>
			<path class="st1" d="M200.2-33.9c2-0.1,3.5-0.3,4.6-0.7c1-0.4,1.9-1.3,2.4-2.6c0.6-1.3,0.9-3.5,0.9-6.4v-42.8
				c0-4.2,0.2-7.5,0.5-10l-8.4,0.3v-8.6H256l0.7,21.7h-7.4c0-5.5-1.3-9.3-4-11.4c-2.6-2.1-5.8-3.1-9.5-3l-4,0.1
				c-1.8,0.1-3.2,0.3-4.2,0.7c-1,0.4-1.8,1.3-2.4,2.7c-0.6,1.4-0.8,3.5-0.8,6.2v16.8h13.1c-0.1-1.3-0.2-4.5-0.4-9.7h8.6v27.1h-7.4
				c0-3-0.5-5.2-1.4-6.6c-0.9-1.4-2.1-2.3-3.6-2.7c-1.5-0.4-3.5-0.6-5.9-0.5l-2.9,0.1v18.3c0,4-0.1,7.3-0.4,9.8h15
				c3.8,0,7-1.3,9.6-3.9c2.6-2.6,4-6.6,4-12.2h7.3l-0.6,24.6h-58.9V-33.9z"/>
		</g>
	</g>
</g>
<g>
	<g transform="translate(636.055727, 322.119453)">
		<g>
			<path class="st1" d="M254.2-24.8c-7.5,0-14.2-1.8-20-5.2c-5.8-3.5-10.3-8.3-13.5-14.3c-3.2-6.1-4.8-12.8-4.8-20.2
				c0-7.1,1.5-13.8,4.5-20.2c3-6.4,7.5-11.7,13.3-15.7c5.9-4,12.9-6,21.2-6c3,0,6.2,0.5,9.6,1.5c3.5,1,6.6,2.3,9.5,4h0.1l-0.5-4.7
				h8.6v26h-7.2c-2-12.4-8.3-18.6-18.8-18.8c-5,0-9.2,1.5-12.7,4.4c-3.5,2.9-6,6.8-7.8,11.7c-1.7,4.8-2.6,10-2.6,15.6
				c0,6.4,0.9,12.1,2.8,17.1c1.9,5,4.5,8.9,8,11.7c3.5,2.8,7.7,4.2,12.6,4.2c4.8,0,9.4-1.2,14-3.7c4.6-2.5,8.4-5.8,11.6-10l5.4,4.9
				c-4.9,6.8-10.3,11.5-16.2,14S259.9-24.8,254.2-24.8z"/>
		</g>
	</g>
</g>
<g>
	<g transform="translate(693.654203, 322.119453)">
		<g>
			<path class="st1" d="M236.8-33.9c2-0.1,3.5-0.3,4.6-0.7c1-0.4,1.9-1.3,2.4-2.6c0.6-1.3,0.9-3.5,0.9-6.4v-42.8
				c0-4.2,0.2-7.5,0.5-10l-8.4,0.3v-8.6h32v7.4c-2,0.1-3.5,0.3-4.6,0.7c-1,0.4-1.9,1.3-2.5,2.6c-0.6,1.3-0.9,3.5-0.9,6.4v42.8
				c0,4.2-0.1,7.5-0.4,10.1c2.4-0.2,5.2-0.4,8.4-0.4v8.6h-32V-33.9z"/>
		</g>
	</g>
</g>
<g>
	<g transform="translate(726.05334, 322.119453)">
		<g>
			<path class="st1" d="M242.5-34.3c1.9,0,3.6-0.6,4.9-1.7c1.3-1.1,2.3-2.5,3.1-4.1c0.8-1.6,1.7-3.9,2.8-7l21.8-59.7h7.8l23.8,60.8
				c0.6,1.5,1.2,3.3,1.9,5.5c0.7,2.2,1.1,4,1.2,5.5c2.5-0.2,4.6-0.4,6.5-0.4v8.6h-30v-7.4c3.6,0,5.4-1.5,5.4-4.5
				c0-1.5-0.4-3.3-1.2-5.4l-2.2-6.1l-24.2,0.5l-1.8,5.2c-0.2,0.6-0.7,1.9-1.5,4c-0.8,2.1-1.5,3.8-2,5c2.4-0.2,5-0.3,7.9-0.3v8.9
				h-23.9V-34.3z M285.2-57.8l-5.1-14c-2.2-6.1-3.6-11.2-4.2-15.3h-0.1c-1.2,5.4-2.6,10.3-4.1,14.7l-5,14.5H285.2z"/>
		</g>
	</g>
</g>
<g>
	<g transform="translate(781.977454, 322.119453)">
		<g>
			<path class="st1" d="M266.2-33.9c2-0.1,3.5-0.3,4.6-0.7c1-0.4,1.9-1.3,2.4-2.6c0.6-1.3,0.9-3.5,0.9-6.4v-42.8
				c0-4.2,0.2-7.5,0.5-10l-8.4,0.3v-8.6h32v7.4c-2,0.1-3.5,0.3-4.6,0.7c-1,0.4-1.9,1.3-2.5,2.6c-0.6,1.3-0.9,3.5-0.9,6.4v42.8
				c0,4-0.1,7.3-0.4,9.8h15c4.5-0.1,7.9-1.7,10.4-4.8s3.7-7.6,3.7-13.6h7.5l-0.7,26.8h-59.5V-33.9z"/>
		</g>
	</g>
</g>
<g>
	<g transform="translate(832.55187, 322.119453)">
	</g>
</g>
<g>
	<g transform="translate(854.571396, 322.119453)">
		<g>
			<path class="st0" d="M290.4-33.9c2-0.1,3.5-0.3,4.6-0.7c1-0.4,1.9-1.3,2.4-2.6c0.6-1.3,0.9-3.5,0.9-6.4v-42.8
				c0-4.2,0.2-7.5,0.5-10l-8.4,0.3v-8.6l32.5-0.1c9.3,0,17.2,1.8,23.6,5.5c6.4,3.7,11.2,8.5,14.4,14.4c3.2,5.9,4.8,12.1,4.8,18.5
				c0,6.6-1.5,12.9-4.5,18.9c-3,6.1-7.8,11.1-14.3,15c-6.5,3.9-14.7,5.9-24.5,5.9h-31.9V-33.9z M324.7-34.7c5.2,0,9.6-1.4,13.1-4.1
				c3.5-2.8,6.1-6.4,7.8-10.8c1.7-4.4,2.5-9.2,2.5-14.5c0-11.3-2.3-19.7-6.9-25.1c-4.6-5.4-11.1-8.1-19.5-8.1
				c-2.5,0-4.3,0.6-5.4,1.9c-1.1,1.3-1.6,3.8-1.6,7.6v43c0,4.2-0.1,7.5-0.4,10.1c0.4-0.1,1.1-0.1,2.1-0.1l4.8,0.1
				C322-34.7,323.2-34.7,324.7-34.7z"/>
		</g>
	</g>
</g>
<g>
	<g transform="translate(918.113898, 322.119453)">
		<g>
			<path class="st0" d="M311.6-33.9c2-0.1,3.5-0.3,4.6-0.7c1-0.4,1.9-1.3,2.4-2.6c0.6-1.3,0.9-3.5,0.9-6.4v-42.8
				c0-4.2,0.2-7.5,0.5-10l-8.4,0.3v-8.6h55.8l0.7,21.7h-7.4c0-5.5-1.3-9.3-4-11.4c-2.6-2.1-5.8-3.1-9.5-3l-4,0.1
				c-1.8,0.1-3.2,0.3-4.2,0.7c-1,0.4-1.8,1.3-2.4,2.7c-0.6,1.4-0.8,3.5-0.8,6.2v16.8h13.1c-0.1-1.3-0.2-4.5-0.4-9.7h8.6v27.1h-7.4
				c0-3-0.5-5.2-1.4-6.6c-0.9-1.4-2.1-2.3-3.6-2.7c-1.5-0.4-3.5-0.6-5.9-0.5l-2.9,0.1v18.3c0,4-0.1,7.3-0.4,9.8h15
				c3.8,0,7-1.3,9.6-3.9c2.6-2.6,4-6.6,4-12.2h7.3l-0.6,24.6h-58.9V-33.9z"/>
		</g>
	</g>
</g>
<g>
	<g transform="translate(970.354376, 322.119453)">
	</g>
</g>
<g>
	<g transform="translate(992.372395, 322.119453)">
		<g>
			<path class="st0" d="M372.8-24.8c-7.9,0-14.7-1.8-20.4-5.2c-5.7-3.5-10.1-8.2-13.1-14.2c-3-6-4.5-12.8-4.5-20.3
				c0-7.1,1.5-13.8,4.4-20.2c2.9-6.4,7.3-11.7,13.2-15.7c5.8-4,12.9-6,21.2-6c3.2,0,6.8,0.5,10.9,1.5c4.1,1,7.5,2.3,10.3,4h0.1
				l-0.4-4.7h8.6v26h-7.3c-1-6-3.3-10.6-7-13.8c-3.7-3.2-8.3-4.9-13.7-4.9c-4.9,0-9.1,1.5-12.5,4.4c-3.4,2.9-6,6.8-7.7,11.7
				c-1.7,4.8-2.6,10-2.6,15.6c0,9.9,2,17.9,6.1,24c4.1,6.1,9.8,9.1,17.2,9.1c2.4,0,5.1-0.3,8.2-0.8c3.1-0.5,5.6-1.3,7.5-2.2V-47
				c0-4.2,0.1-7.5,0.4-10c-1.9,0.2-3.8,0.2-5.5,0.2l-2.9,0.1v-8.6h29.7v7.4c-1.9,0.1-3.3,0.3-4.4,0.8c-1,0.4-1.8,1.4-2.4,2.7
				c-0.5,1.4-0.8,3.4-0.8,6.2v17.9h-2.7c-1.7,0-3.4,0.2-5.1,0.6c-1.7,0.4-3.8,1-6.4,1.8c-3.9,1.1-7.1,1.9-9.7,2.5
				C379.1-25,376.1-24.8,372.8-24.8z"/>
		</g>
	</g>
</g>
<g>
	<g transform="translate(1055.496307, 322.119453)">
		<g>
			<path class="st0" d="M357.4-33.9c2-0.1,3.5-0.3,4.6-0.7c1-0.4,1.9-1.3,2.4-2.6c0.6-1.3,0.9-3.5,0.9-6.4v-42.8
				c0-4.2,0.2-7.5,0.5-10l-8.4,0.3v-8.6l31.7-0.2c10.2-0.1,18.1,1.7,23.6,5.4c5.5,3.6,8.3,9.6,8.3,17.8c0,5.1-1.7,9.7-5,13.7
				c-3.3,4-8.2,6.9-14.7,8.8v0.1c1.3,0.5,2.7,1.4,4.1,2.8c1.4,1.3,2.6,2.7,3.6,4.3l5.2,7.8c2.5,3.9,4.6,6.7,6.3,8.1
				c1.7,1.5,3.8,2.3,6.2,2.3v7.4h-18.4c-1.3-0.9-2.6-2.2-3.8-3.8c-1.3-1.7-2.7-3.9-4.4-6.7L392-50.4c-1.9-3-3.4-5.1-4.7-6.5h-5.8
				V-45c0,4.2-0.1,7.6-0.4,10.2c2.4-0.2,5.5-0.4,9.5-0.4v8.6h-33.1V-33.9z M386.9-64.9c6.1,0,10.5-1.4,13.2-4.1
				c2.7-2.7,4.1-7,4.1-12.8c0-6.2-1.6-10.3-4.8-12.3c-3.2-2-6.6-3-10.4-3c-2.6,0-4.5,0.6-5.7,1.7c-1.2,1.1-1.8,3.5-1.8,7.1v22.9
				C383.8-65.1,385.5-64.9,386.9-64.9z"/>
		</g>
	</g>
</g>
<g>
	<g transform="translate(1112.927332, 322.119453)">
		<g>
			<path class="st0" d="M371.4-34.3c1.9,0,3.6-0.6,4.9-1.7c1.3-1.1,2.3-2.5,3.1-4.1c0.8-1.6,1.7-3.9,2.8-7l21.8-59.7h7.8l23.8,60.8
				c0.6,1.5,1.2,3.3,1.9,5.5c0.7,2.2,1.1,4,1.2,5.5c2.5-0.2,4.6-0.4,6.5-0.4v8.6h-30v-7.4c3.6,0,5.4-1.5,5.4-4.5
				c0-1.5-0.4-3.3-1.2-5.4l-2.3-6.1l-24.2,0.5l-1.8,5.2c-0.2,0.6-0.7,1.9-1.5,4c-0.8,2.1-1.5,3.8-2,5c2.4-0.2,5-0.3,7.9-0.3v8.9
				h-23.9V-34.3z M414.2-57.8l-5.1-14c-2.2-6.1-3.6-11.2-4.2-15.3h-0.1c-1.2,5.4-2.6,10.3-4.1,14.7l-5,14.5H414.2z"/>
		</g>
	</g>
</g>
<g>
	<g transform="translate(1168.851446, 322.119453)">
		<g>
			<path class="st0" d="M395.2-33.9c2-0.1,3.5-0.3,4.6-0.7c1-0.4,1.9-1.3,2.4-2.6c0.6-1.3,0.9-3.5,0.9-6.4v-42.8
				c0-4.2,0.2-7.5,0.5-10l-8.4,0.3v-8.6l32.5-0.1c9.3,0,17.2,1.8,23.6,5.5c6.4,3.7,11.2,8.5,14.4,14.4c3.2,5.9,4.8,12.1,4.8,18.5
				c0,6.6-1.5,12.9-4.5,18.9c-3,6.1-7.8,11.1-14.3,15c-6.5,3.9-14.7,5.9-24.5,5.9h-31.9V-33.9z M429.5-34.7c5.2,0,9.6-1.4,13.1-4.1
				c3.5-2.8,6.1-6.4,7.8-10.8c1.7-4.4,2.5-9.2,2.5-14.5c0-11.3-2.3-19.7-6.9-25.1c-4.6-5.4-11.1-8.1-19.5-8.1
				c-2.5,0-4.3,0.6-5.4,1.9c-1.1,1.3-1.6,3.8-1.6,7.6v43c0,4.2-0.1,7.5-0.4,10.1c0.4-0.1,1.1-0.1,2.1-0.1l4.8,0.1
				C426.8-34.7,428-34.7,429.5-34.7z"/>
		</g>
	</g>
</g>
<g>
	<g transform="translate(1232.393937, 322.119453)">
		<g>
			<path class="st0" d="M453.5-24.8c-8.9,0-16.3-2-22.1-5.9c-5.8-3.9-10.1-9-12.7-15.2c-2.7-6.2-4-12.8-4-19.7
				c0-6.6,1.5-13.1,4.5-19.3c3-6.2,7.4-11.4,13.3-15.5c5.9-4.1,13-6.1,21.4-6.1c8.6,0,15.8,2,21.6,6.1c5.8,4.1,10.2,9.2,13,15.5
				c2.8,6.2,4.2,12.7,4.2,19.3c0,6.5-1.5,12.9-4.5,19.1c-3,6.3-7.4,11.5-13.3,15.6C469-26.8,461.9-24.8,453.5-24.8z M454.7-32.9
				c4.8,0,8.8-1.5,11.8-4.6c3.1-3.1,5.2-6.9,6.6-11.6c1.3-4.7,2-9.6,2-14.6c0-10.6-1.9-19-5.6-25.2c-3.7-6.2-9.2-9.4-16.5-9.4
				c-4.9,0-8.9,1.6-12,4.7s-5.4,7.1-6.7,11.8c-1.3,4.8-2,9.7-2,14.8c0,5.2,0.7,10.4,2.2,15.6c1.5,5.2,3.9,9.6,7.3,13.1
				C445.2-34.7,449.5-32.9,454.7-32.9z"/>
		</g>
	</g>
</g>
</svg>
